<?xml version="1.0" encoding="utf-8"?>
<!-- Generator: Adobe Illustrator 18.0.0, SVG Export Plug-In . SVG Version: 6.00 Build 0)  -->
<!DOCTYPE svg PUBLIC "-//W3C//DTD SVG 1.1//EN" "http://www.w3.org/Graphics/SVG/1.1/DTD/svg11.dtd">
<svg version="1.1" id="Capa_1" xmlns="http://www.w3.org/2000/svg" xmlns:xlink="http://www.w3.org/1999/xlink" x="0px" y="0px"
	 viewBox="0 0 380 260" style="enable-background:new 0 0 380 260;" xml:space="preserve">
<style type="text/css">
	.st0{fill-rule:evenodd;clip-rule:evenodd;fill:#FFFFFF;}
	.st1{fill-rule:evenodd;clip-rule:evenodd;fill:url(#XMLID_126_);}
	.st2{fill-rule:evenodd;clip-rule:evenodd;fill:url(#XMLID_127_);}
	.st3{fill:#A1BC30;}
	.st4{fill-rule:evenodd;clip-rule:evenodd;fill:url(#XMLID_128_);}
	.st5{fill-rule:evenodd;clip-rule:evenodd;fill:url(#XMLID_129_);}
	.st6{fill-rule:evenodd;clip-rule:evenodd;fill:url(#XMLID_130_);}
	.st7{fill-rule:evenodd;clip-rule:evenodd;fill:url(#XMLID_131_);}
	.st8{fill-rule:evenodd;clip-rule:evenodd;fill:url(#XMLID_132_);}
	.st9{fill-rule:evenodd;clip-rule:evenodd;fill:url(#XMLID_133_);}
	.st10{fill:#5A6D2E;}
	.st11{fill-rule:evenodd;clip-rule:evenodd;fill:url(#XMLID_134_);}
</style>
<g id="XMLID_164_">
	<g id="XMLID_123_">
		<path id="XMLID_124_" class="st0" d="M179.8,109.7c2,1.3,3.9,1.7,5.6,1.3c2.6-0.6,3.9-2.9,5.2-5c2.4-4,4.9-8.2,15.7-5.1
			c12.6,3.6,23.1,0.6,29.4-8.5c8.2-11.7,8-32-0.3-43.5c-0.8-1-2.1-1.4-3.3-0.9c-0.2,0.1-0.5,0.2-0.8,0.4c-0.6,0.3-1.1,0.7-1.3,1.3
			c-5.6,10.9-18.3,16.2-30,12.6C193,60,187.3,55,184.3,48.4c-0.5-1.1-1.6-1.7-2.8-1.6c-1.2,0.1-2.2,0.9-2.5,2.1l-0.1,0.3
			c0-0.1,0.1-0.2,0.1-0.3c-3,7.1-12.3,19.1-12.4,19.3c-0.3,0.4-0.5,0.8-0.6,1.3C165.9,70.5,162,98.4,179.8,109.7z"/>
	</g>
	<linearGradient id="XMLID_126_" gradientUnits="userSpaceOnUse" x1="230.2646" y1="90.7331" x2="187.3713" y2="68.8202">
		<stop  offset="5.618000e-003" style="stop-color:#F0CF7E"/>
		<stop  offset="4.187973e-002" style="stop-color:#ECCA7B"/>
		<stop  offset="0.3258" style="stop-color:#D0A466"/>
		<stop  offset="0.5891" style="stop-color:#BC8957"/>
		<stop  offset="0.822" style="stop-color:#B0794D"/>
		<stop  offset="1" style="stop-color:#AC734A"/>
	</linearGradient>
	<path id="XMLID_122_" class="st1" d="M181.3,107.4c9.3,5.9,3.8-15.5,25.8-9.2c32.9,9.4,37.8-31.6,26-47.7c-0.2,0.1-0.5,0.2-0.8,0.3
		c-6.1,11.9-20.1,18-33.3,14c-8-2.5-14.1-8.2-17.3-15.3c0,0.1-0.1,0.2-0.1,0.3c-3.2,7.6-12.8,19.9-12.8,19.9S164.8,96.8,181.3,107.4
		z"/>
	<g id="XMLID_119_">
		<path id="XMLID_120_" class="st0" d="M99.9,110.7c2,1.3,3.9,1.7,5.6,1.3c2.6-0.6,3.9-2.9,5.2-5c2.4-4,4.9-8.2,15.7-5.1
			c12.6,3.6,23.1,0.6,29.4-8.5c8.2-11.7,8-32-0.3-43.5c-0.8-1-2.1-1.4-3.3-0.9c-0.2,0.1-0.5,0.2-0.8,0.4c-0.6,0.3-1.1,0.7-1.3,1.3
			c-5.6,10.9-18.2,16.2-30,12.6c-6.9-2.1-12.6-7.1-15.6-13.8c-0.5-1.1-1.6-1.7-2.8-1.6c-1.2,0.1-2.2,0.9-2.5,2.1L99.1,50
			c0-0.1,0.1-0.2,0.1-0.3c-3,7.1-12.3,19.1-12.4,19.3c-0.3,0.4-0.5,0.8-0.6,1.3C86.1,71.5,82.1,99.3,99.9,110.7z"/>
	</g>
	<linearGradient id="XMLID_127_" gradientUnits="userSpaceOnUse" x1="93.8261" y1="91.0611" x2="125.9933" y2="73.3458">
		<stop  offset="5.618000e-003" style="stop-color:#F6EB6E"/>
		<stop  offset="4.065699e-002" style="stop-color:#F5E86B"/>
		<stop  offset="0.4145" style="stop-color:#EACE50"/>
		<stop  offset="0.7463" style="stop-color:#E3BF40"/>
		<stop  offset="1" style="stop-color:#E1B93A"/>
	</linearGradient>
	<path id="XMLID_118_" class="st2" d="M101.4,108.3c9.3,5.9,3.8-15.5,25.8-9.2c33,9.4,37.8-31.6,26-47.7c-0.2,0.1-0.5,0.2-0.8,0.3
		c-6.1,11.9-20.1,18-33.3,14c-8-2.5-14.1-8.2-17.3-15.3c0,0.1-0.1,0.2-0.1,0.3C98.7,58.4,89,70.7,89,70.7S84.9,97.8,101.4,108.3z"/>
	<path id="XMLID_117_" class="st0" d="M149.9,38.9c0,12.2-9.9,22.1-22.1,22.1c-12.2,0-22.1-9.9-22.1-22.1c0-12.2,9.9-22.1,22.1-22.1
		C139.9,16.8,149.9,26.7,149.9,38.9z"/>
	<path id="XMLID_116_" class="st0" d="M229.6,38.9c0,12.2-9.9,22.1-22.1,22.1c-12.2,0-22.1-9.9-22.1-22.1c0-12.2,9.9-22.1,22.1-22.1
		C219.7,16.7,229.6,26.6,229.6,38.9z"/>
	<g id="XMLID_96_">
		<path id="XMLID_113_" d="M30.8,141.8l-0.3,5.9c1.8-2.4,3.8-4.2,5.9-5.4c2.2-1.2,4.5-1.8,7.1-1.8c3.1,0,5.8,0.8,8.1,2.5
			c2.3,1.7,3.7,3.6,4.3,5.8c0.6,2.2,0.8,5.9,0.8,11.2V188c0,6-0.4,10.3-1.1,12.9c-0.7,2.6-2.2,4.6-4.4,6.1c-2.2,1.5-4.9,2.3-8,2.3
			c-2.5,0-4.8-0.6-6.9-1.8c-2.1-1.2-4.1-2.9-5.8-5.3v15.2H10.3v-75.6H30.8z M36.5,161.1c0-4.1-0.1-6.6-0.4-7.4
			c-0.3-0.9-1.1-1.3-2.5-1.3c-1.3,0-2.2,0.5-2.6,1.5c-0.4,1-0.6,3.4-0.6,7.2v27.4c0,4,0.2,6.5,0.6,7.5c0.4,1,1.3,1.5,2.6,1.5
			c1.3,0,2.1-0.5,2.4-1.4c0.3-0.9,0.5-3.1,0.5-6.7V161.1z"/>
		<path id="XMLID_110_" d="M81.5,167.4H62.6V163c0-5.1,0.6-9.1,1.8-11.9c1.2-2.8,3.6-5.2,7.1-7.4c3.6-2.1,8.2-3.2,13.9-3.2
			c6.8,0,12,1.2,15.4,3.6c3.5,2.4,5.5,5.4,6.2,8.9c0.7,3.5,1.1,10.7,1.1,21.7V208H88.4v-6c-1.2,2.4-2.8,4.2-4.8,5.4
			c-1.9,1.2-4.3,1.8-7,1.8c-3.5,0-6.8-1-9.7-3c-2.9-2-4.4-6.3-4.4-13v-5.4c0-5,0.8-8.3,2.3-10.1c1.6-1.8,5.4-3.9,11.6-6.3
			c6.6-2.6,10.2-4.3,10.6-5.2c0.5-0.9,0.7-2.7,0.7-5.5c0-3.5-0.3-5.7-0.8-6.7c-0.5-1-1.4-1.6-2.6-1.6c-1.4,0-2.2,0.4-2.6,1.3
			c-0.3,0.9-0.5,3.2-0.5,6.8V167.4z M87.9,176.5c-3.2,2.4-5.1,4.3-5.6,5.9c-0.5,1.6-0.8,3.9-0.8,6.9c0,3.4,0.2,5.6,0.7,6.6
			c0.5,1,1.3,1.5,2.7,1.5c1.3,0,2.1-0.4,2.5-1.2c0.4-0.8,0.6-2.8,0.6-6.2V176.5z"/>
		<path id="XMLID_108_" d="M135,141.8l-0.7,8.8c3-6.3,7.2-9.7,12.8-10V164c-3.7,0-6.4,0.5-8.2,1.5c-1.7,1-2.8,2.4-3.2,4.2
			c-0.4,1.8-0.6,5.9-0.6,12.3V208H115v-66.3H135z"/>
		<path id="XMLID_106_" d="M174.7,132.9v10.4h5.6v10.6h-5.6v35.5c0,4.4,0.2,6.8,0.7,7.3c0.5,0.5,2.4,0.7,5.7,0.7V208h-8.2
			c-4.6,0-7.9-0.2-9.8-0.6c-2-0.4-3.7-1.3-5.2-2.6c-1.5-1.4-2.4-3-2.8-4.7c-0.4-1.8-0.5-6-0.5-12.5v-33.6h-4.3v-10.6h4.3v-10.4
			H174.7z"/>
		<path id="XMLID_104_" d="M205.2,141.8l-0.3,6.1c1.5-2.4,3.3-4.3,5.4-5.5c2.1-1.2,4.6-1.8,7.4-1.8c3.5,0,6.3,0.8,8.5,2.4
			c2.2,1.6,3.6,3.7,4.3,6.2c0.6,2.5,1,6.6,1,12.4V208h-20.1v-45.9c0-4.6-0.2-7.3-0.5-8.3c-0.3-1-1.2-1.5-2.6-1.5
			c-1.5,0-2.4,0.6-2.8,1.7c-0.4,1.2-0.6,4.2-0.6,9.2V208h-20.1v-66.3H205.2z"/>
		<path id="XMLID_101_" d="M284,176.1h-26.4v14.3c0,3,0.2,4.9,0.7,5.8c0.4,0.9,1.3,1.3,2.6,1.3c1.6,0,2.7-0.6,3.2-1.7
			c0.5-1.1,0.8-3.3,0.8-6.6v-8.7H284v4.9c0,4.1-0.3,7.2-0.8,9.4c-0.5,2.2-1.7,4.5-3.6,7c-1.9,2.5-4.3,4.4-7.2,5.6
			c-2.9,1.2-6.6,1.9-11,1.9c-4.3,0-8.1-0.6-11.3-1.9c-3.3-1.2-5.8-2.9-7.7-5.1c-1.8-2.1-3.1-4.5-3.8-7.1c-0.7-2.6-1.1-6.3-1.1-11.3
			v-19.3c0-5.8,0.8-10.4,2.4-13.7c1.6-3.3,4.1-5.9,7.7-7.7c3.6-1.8,7.7-2.7,12.3-2.7c5.7,0,10.4,1.1,14.1,3.2c3.7,2.2,6.3,5,7.8,8.6
			c1.5,3.5,2.2,8.5,2.2,15V176.1z M263.9,165.3v-4.9c0-3.4-0.2-5.7-0.6-6.7c-0.4-1-1.2-1.5-2.4-1.5c-1.5,0-2.4,0.4-2.8,1.3
			c-0.4,0.9-0.5,3.1-0.5,6.9v4.9H263.9z"/>
		<path id="XMLID_99_" d="M310.5,141.8l-0.7,8.8c3-6.3,7.2-9.7,12.8-10V164c-3.7,0-6.4,0.5-8.2,1.5c-1.7,1-2.8,2.4-3.2,4.2
			c-0.4,1.8-0.6,5.9-0.6,12.3V208h-20.1v-66.3H310.5z"/>
		<path id="XMLID_97_" d="M368.4,162.9h-18v-3.6c0-3-0.2-5-0.5-5.8c-0.4-0.8-1.2-1.2-2.6-1.2c-1.1,0-2,0.4-2.6,1.1
			c-0.6,0.7-0.9,1.9-0.9,3.4c0,2,0.1,3.5,0.4,4.5c0.3,0.9,1.1,2,2.6,3.1c1.4,1.1,4.4,2.8,8.8,4.9c5.9,2.9,9.8,5.6,11.6,8.1
			c1.8,2.5,2.8,6.2,2.8,11c0,5.4-0.7,9.5-2.1,12.2c-1.4,2.7-3.8,4.9-7,6.3c-3.3,1.5-7.3,2.2-11.9,2.2c-5.1,0-9.6-0.8-13.2-2.4
			c-3.7-1.6-6.2-3.8-7.6-6.5c-1.4-2.7-2-6.9-2-12.4v-3.2h18v4.2c0,3.5,0.2,5.8,0.7,6.9c0.5,1.1,1.4,1.6,2.7,1.6c1.4,0,2.5-0.4,3-1.1
			c0.6-0.7,0.9-2.2,0.9-4.5c0-3.2-0.4-5.1-1.1-5.9c-0.8-0.8-4.7-3.2-11.8-7.1c-6-3.3-9.6-6.3-10.9-9.1c-1.3-2.7-2-5.9-2-9.7
			c0-5.3,0.7-9.2,2.1-11.7c1.4-2.5,3.8-4.4,7.1-5.8c3.4-1.4,7.3-2,11.7-2c4.4,0,8.2,0.6,11.3,1.7c3.1,1.1,5.5,2.6,7.1,4.4
			c1.7,1.8,2.7,3.5,3,5.1c0.3,1.6,0.5,4,0.5,7.3V162.9z"/>
	</g>
	<g id="XMLID_91_">
		<path id="XMLID_94_" class="st3" d="M22.5,91.7l-0.2,3.8c0.9-1.5,2-2.6,3.3-3.4c1.3-0.7,2.8-1.1,4.4-1.1c3.2,0,5.8,1.5,7.6,4.5
			c1-1.5,2.2-2.6,3.4-3.4c1.3-0.7,2.7-1.1,4.2-1.1c2,0,3.7,0.5,5.1,1.5c1.3,1,2.2,2.2,2.6,3.6c0.4,1.4,0.6,3.8,0.6,7v28.1H41.8
			v-25.7c0-3.4-0.1-5.5-0.3-6.3c-0.2-0.8-0.7-1.2-1.6-1.2c-0.8,0-1.4,0.4-1.6,1.2c-0.2,0.8-0.4,2.9-0.4,6.3v25.7H26.2v-25.1
			c0-3.9-0.1-6.2-0.3-7c-0.2-0.8-0.7-1.2-1.6-1.2c-0.5,0-1,0.2-1.4,0.6c-0.4,0.4-0.6,0.9-0.6,1.5c0,0.6-0.1,1.8-0.1,3.7v27.4H10.6
			V91.7H22.5z"/>
		<path id="XMLID_92_" class="st3" d="M83,91.7l-3.5,28.6c-0.5,4.5-1,7.6-1.4,9.3c-0.4,1.7-1,3-1.8,4.1c-0.8,1.1-2,1.9-3.6,2.4
			c-1.5,0.5-3.9,0.8-7.3,0.8h-7.3v-6.3c1.9,0,3.1-0.1,3.6-0.3c0.5-0.2,0.8-0.6,0.8-1.3c0-0.3-0.3-1.7-0.8-4.1l-6.6-33.1h10.9l4,26.8
			l2-26.8H83z"/>
	</g>
	<g id="XMLID_88_">
		
			<radialGradient id="XMLID_128_" cx="122.7906" cy="-271.4326" r="27.2516" gradientTransform="matrix(0.6475 0 0 0.6476 128.0145 199.6234)" gradientUnits="userSpaceOnUse">
			<stop  offset="0" style="stop-color:#FFFFFF"/>
			<stop  offset="1" style="stop-color:#AC744B"/>
		</radialGradient>
		<path id="XMLID_90_" class="st4" d="M225.6,41l-0.7-0.7c-4.7-3.9-10.8-6.3-17.4-6.3c-6.6,0-12.6,2.4-17.3,6.3l-0.7,0.7l-0.1-1.9
			c0-10.2,8.1-18.4,18.2-18.4c10,0,18.2,8.3,18.2,18.4L225.6,41z"/>
		
			<radialGradient id="XMLID_129_" cx="124.4586" cy="-230.7866" r="22.708" gradientTransform="matrix(0.6475 0 0 0.6476 128.0145 199.6234)" gradientUnits="userSpaceOnUse">
			<stop  offset="0" style="stop-color:#F0CF7E"/>
			<stop  offset="1" style="stop-color:#AC744B"/>
		</radialGradient>
		<path id="XMLID_89_" class="st5" d="M207.5,57.1c-9.4,0-17.2-7.2-18.1-16.3v0l0.7-0.7c4.7-3.9,10.8-6.2,17.3-6.2
			c6.6,0,12.6,2.3,17.4,6.2l0.7,0.7v0C224.6,49.9,216.9,57.1,207.5,57.1z"/>
	</g>
	<g id="XMLID_85_">
		
			<radialGradient id="XMLID_130_" cx="-0.3724" cy="-271.4326" r="27.2535" gradientTransform="matrix(0.6475 0 0 0.6476 128.0145 199.6234)" gradientUnits="userSpaceOnUse">
			<stop  offset="0" style="stop-color:#FFFFFF"/>
			<stop  offset="1" style="stop-color:#E2B94A"/>
		</radialGradient>
		<path id="XMLID_87_" class="st6" d="M145.8,41l-0.7-0.7c-4.7-3.9-10.8-6.3-17.3-6.3c-6.6,0-12.6,2.4-17.4,6.3l-0.7,0.7l-0.1-1.9
			c0-10.2,8.2-18.4,18.2-18.4c10,0,18.2,8.3,18.2,18.4L145.8,41z"/>
		
			<radialGradient id="XMLID_131_" cx="1.2967" cy="-230.7866" r="22.7077" gradientTransform="matrix(0.6475 0 0 0.6476 128.0145 199.6234)" gradientUnits="userSpaceOnUse">
			<stop  offset="0" style="stop-color:#F6EB6E"/>
			<stop  offset="1" style="stop-color:#E1B93A"/>
		</radialGradient>
		<path id="XMLID_86_" class="st7" d="M127.7,57.1c-9.4,0-17.2-7.2-18.1-16.3v0l0.7-0.7c4.7-3.9,10.8-6.2,17.4-6.2
			c6.6,0,12.6,2.3,17.3,6.2l0.7,0.7v0C144.9,49.9,137.1,57.1,127.7,57.1z"/>
	</g>
	<path id="XMLID_84_" class="st0" d="M189.7,58.3c0,12.2-9.9,22.1-22.1,22.1c-12.2,0-22.1-9.9-22.1-22.1c0-12.2,9.9-22.1,22.1-22.1
		C179.8,36.2,189.7,46.1,189.7,58.3z"/>
	<g id="XMLID_81_">
		
			<radialGradient id="XMLID_132_" cx="61.1471" cy="-241.4568" r="27.2522" gradientTransform="matrix(0.6475 0 0 0.6476 128.0145 199.6234)" gradientUnits="userSpaceOnUse">
			<stop  offset="0" style="stop-color:#FFFFFF"/>
			<stop  offset="1" style="stop-color:#A1BC35"/>
		</radialGradient>
		<path id="XMLID_83_" class="st8" d="M185.7,60.4l-0.7-0.7c-4.7-3.9-10.8-6.3-17.3-6.3c-6.6,0-12.6,2.4-17.3,6.3l-0.7,0.7l-0.1-1.9
			c0-10.2,8.2-18.4,18.2-18.4c10,0,18.2,8.3,18.2,18.4L185.7,60.4z"/>
		
			<radialGradient id="XMLID_133_" cx="62.8186" cy="-200.8101" r="22.7079" gradientTransform="matrix(0.6475 0 0 0.6476 128.0145 199.6234)" gradientUnits="userSpaceOnUse">
			<stop  offset="0" style="stop-color:#C5CE31"/>
			<stop  offset="1" style="stop-color:#A1BC35"/>
		</radialGradient>
		<path id="XMLID_82_" class="st9" d="M167.6,76.5c-9.4,0-17.2-7.2-18.1-16.3v0l0.7-0.7c4.7-3.9,10.8-6.2,17.3-6.2
			c6.6,0,12.6,2.3,17.3,6.2l0.7,0.7v0C184.7,69.3,177,76.5,167.6,76.5z"/>
	</g>
	<g id="XMLID_6_">
		<path id="XMLID_79_" class="st10" d="M17,233.4c0-0.9-0.3-1.5-0.7-2c-0.5-0.5-1.1-0.7-1.9-0.7c-0.9,0-1.5,0.2-1.9,0.6
			c-0.4,0.4-0.6,1-0.6,1.8c0,0.6,0.2,1,0.6,1.3c0.4,0.3,1.1,0.6,2.2,0.8c1.6,0.4,2.7,0.9,3.2,1.4c0.6,0.6,0.9,1.4,0.9,2.6
			c0,1.3-0.4,2.3-1.2,3c-0.8,0.7-1.9,1.1-3.2,1.1c-1.4,0-2.4-0.4-3.2-1.2c-0.8-0.8-1.1-2-1.2-3.4h1.4c0,1,0.3,1.7,0.8,2.3
			c0.5,0.5,1.2,0.8,2.2,0.8c1,0,1.7-0.2,2.2-0.6c0.5-0.4,0.7-1,0.7-1.7c0-0.7-0.2-1.2-0.6-1.5c-0.4-0.3-1.1-0.6-2.2-0.9
			c-1.6-0.4-2.6-0.8-3.2-1.4c-0.6-0.5-0.9-1.4-0.9-2.4c0-1.2,0.4-2.2,1.1-2.9c0.7-0.7,1.7-1.1,2.9-1.1c1.2,0,2.2,0.4,2.9,1.1
			c0.7,0.7,1.1,1.8,1.1,3.1H17z"/>
		<path id="XMLID_77_" class="st10" d="M30,237.4c0,2.1-0.3,3.6-1,4.5c-0.7,0.9-1.8,1.4-3.3,1.4c-1.5,0-2.6-0.5-3.3-1.4
			c-0.7-0.9-1-2.4-1-4.5v-7.9h0.7h0.7v8c0,1.5,0.2,2.5,0.7,3.2c0.5,0.7,1.2,1,2.2,1c1,0,1.8-0.3,2.2-1c0.5-0.6,0.7-1.7,0.7-3.2v-8
			h0.7H30V237.4z"/>
		<path id="XMLID_74_" class="st10" d="M41.1,229.5H42h0.8l4,13.4H46h-0.8L44,239h-4.3l-1.1,3.9h-0.9H37L41.1,229.5z M40.2,237.4
			h3.4l-1.7-6.2h0L40.2,237.4z"/>
		<path id="XMLID_72_" class="st10" d="M48.8,242.9v-13.4h0.7h0.7v11.8h5.6v0.8v0.8H48.8z"/>
		<path id="XMLID_70_" class="st10" d="M58.2,229.5H59h0.7v13.4H59h-0.7V229.5z"/>
		<path id="XMLID_67_" class="st10" d="M66.1,229.5h0.8h0.8l4,13.4h-0.8h-0.8L69,239h-4.3l-1.1,3.9h-0.9h-0.8L66.1,229.5z
			 M65.2,237.4h3.4l-1.7-6.2h0L65.2,237.4z"/>
		<path id="XMLID_64_" class="st10" d="M73.8,229.5h0.7h3.5c1.6,0,2.8,0.6,3.6,1.7c0.8,1.1,1.3,2.8,1.3,4.8c0,2.2-0.4,3.9-1.3,5.1
			c-0.8,1.2-2,1.8-3.6,1.8h-3.5h-0.7V229.5z M75.3,241.4h2.8c1.1,0,1.9-0.4,2.5-1.3c0.6-0.9,0.8-2.2,0.8-3.9c0-1.7-0.3-3-0.8-3.8
			c-0.6-0.9-1.4-1.3-2.5-1.3h-2.8V241.4z"/>
		<path id="XMLID_61_" class="st10" d="M86.4,241.3c-1-1.3-1.5-3-1.5-5.1c0-2.2,0.5-3.9,1.5-5.2c1-1.3,2.3-1.9,3.9-1.9
			c1.6,0,3,0.6,3.9,1.9c1,1.3,1.5,3,1.5,5.2c0,2.1-0.5,3.8-1.5,5.1c-1,1.3-2.3,1.9-3.9,1.9C88.7,243.3,87.4,242.6,86.4,241.3z
			 M93.1,240.2c0.7-1,1-2.3,1-3.9c0-1.7-0.3-3.1-1-4c-0.7-1-1.6-1.5-2.8-1.5c-1.2,0-2.1,0.5-2.8,1.5c-0.7,1-1,2.3-1,4
			c0,1.6,0.3,2.9,1,3.9c0.7,1,1.6,1.5,2.8,1.5C91.5,241.6,92.4,241.1,93.1,240.2z"/>
		<path id="XMLID_59_" class="st10" d="M103.2,242.9v-13.4h8v0.8v0.8h-6.6v4.1h6.1v0.8v0.8h-6.1v4.5h6.7v0.8v0.8H103.2z"/>
		<path id="XMLID_57_" class="st10" d="M115.4,242.9h-0.7h-0.7v-13.4h0.9h0.9l5.5,10.9v-10.9h0.7h0.7v13.4h-0.8h-0.8l-5.7-10.9
			V242.9z"/>
		<path id="XMLID_55_" class="st10" d="M137.1,233.4c0-0.9-0.3-1.5-0.7-2c-0.5-0.5-1.1-0.7-1.9-0.7c-0.9,0-1.5,0.2-1.9,0.6
			c-0.4,0.4-0.6,1-0.6,1.8c0,0.6,0.2,1,0.6,1.3c0.4,0.3,1.1,0.6,2.2,0.8c1.6,0.4,2.7,0.9,3.2,1.4c0.6,0.6,0.9,1.4,0.9,2.6
			c0,1.3-0.4,2.3-1.2,3c-0.8,0.7-1.9,1.1-3.2,1.1c-1.4,0-2.4-0.4-3.2-1.2c-0.8-0.8-1.1-2-1.2-3.4h1.4c0,1,0.3,1.7,0.8,2.3
			c0.5,0.5,1.2,0.8,2.2,0.8c1,0,1.7-0.2,2.2-0.6c0.5-0.4,0.7-1,0.7-1.7c0-0.7-0.2-1.2-0.6-1.5c-0.4-0.3-1.1-0.6-2.2-0.9
			c-1.6-0.4-2.6-0.8-3.2-1.4c-0.6-0.5-0.9-1.4-0.9-2.4c0-1.2,0.4-2.2,1.1-2.9c0.7-0.7,1.7-1.1,2.9-1.1c1.3,0,2.2,0.4,2.9,1.1
			c0.7,0.7,1.1,1.8,1.1,3.1H137.1z"/>
		<path id="XMLID_52_" class="st10" d="M142.3,241.3c-1-1.3-1.5-3-1.5-5.1c0-2.2,0.5-3.9,1.5-5.2c1-1.3,2.3-1.9,3.9-1.9
			c1.6,0,3,0.6,3.9,1.9c1,1.3,1.5,3,1.5,5.2c0,2.1-0.5,3.8-1.5,5.1c-1,1.3-2.3,1.9-3.9,1.9C144.6,243.3,143.3,242.6,142.3,241.3z
			 M149,240.2c0.7-1,1-2.3,1-3.9c0-1.7-0.3-3.1-1-4c-0.7-1-1.6-1.5-2.8-1.5c-1.2,0-2.1,0.5-2.8,1.5c-0.7,1-1,2.3-1,4
			c0,1.6,0.3,2.9,1,3.9c0.7,1,1.6,1.5,2.8,1.5C147.4,241.6,148.3,241.1,149,240.2z"/>
		<path id="XMLID_50_" class="st10" d="M154,242.9v-13.4h0.7h0.7v11.8h5.6v0.8v0.8H154z"/>
		<path id="XMLID_48_" class="st10" d="M171.9,237.4c0,2.1-0.3,3.6-1,4.5c-0.7,0.9-1.8,1.4-3.3,1.4c-1.5,0-2.6-0.5-3.3-1.4
			c-0.7-0.9-1-2.4-1-4.5v-7.9h0.7h0.7v8c0,1.5,0.2,2.5,0.7,3.2c0.5,0.7,1.2,1,2.2,1c1,0,1.8-0.3,2.2-1c0.5-0.6,0.7-1.7,0.7-3.2v-8
			h0.7h0.7V237.4z"/>
		<path id="XMLID_46_" class="st10" d="M184.2,237.9c-0.1,1.7-0.6,3-1.5,3.9c-0.8,0.9-2,1.4-3.4,1.4c-1.5,0-2.7-0.6-3.6-1.9
			c-0.9-1.3-1.3-3-1.3-5.2c0-2.1,0.5-3.8,1.4-5.1c0.9-1.3,2.2-1.9,3.8-1.9c1.3,0,2.3,0.4,3.1,1.1c0.8,0.8,1.3,1.8,1.4,3.2h-1.5
			c-0.1-0.9-0.4-1.6-1-2c-0.5-0.5-1.2-0.7-2.1-0.7c-1.1,0-2,0.5-2.7,1.5c-0.7,1-1,2.3-1,4c0,1.7,0.3,3.1,0.9,4
			c0.6,0.9,1.5,1.4,2.7,1.4c0.9,0,1.6-0.3,2.2-1c0.5-0.6,0.9-1.6,1-2.7H184.2z"/>
		<path id="XMLID_44_" class="st10" d="M186.9,229.5h0.7h0.7v13.4h-0.7h-0.7V229.5z"/>
		<path id="XMLID_41_" class="st10" d="M192.5,241.3c-1-1.3-1.5-3-1.5-5.1c0-2.2,0.5-3.9,1.5-5.2c1-1.3,2.3-1.9,3.9-1.9
			c1.6,0,3,0.6,3.9,1.9c1,1.3,1.5,3,1.5,5.2c0,2.1-0.5,3.8-1.5,5.1c-1,1.3-2.3,1.9-3.9,1.9C194.8,243.3,193.5,242.6,192.5,241.3z
			 M199.2,240.2c0.7-1,1.1-2.3,1.1-3.9c0-1.7-0.3-3.1-1-4c-0.7-1-1.6-1.5-2.8-1.5c-1.2,0-2.1,0.5-2.8,1.5c-0.7,1-1,2.3-1,4
			c0,1.6,0.3,2.9,1,3.9c0.7,1,1.6,1.5,2.8,1.5C197.5,241.6,198.5,241.1,199.2,240.2z"/>
		<path id="XMLID_39_" class="st10" d="M205.6,242.9h-0.7h-0.7v-13.4h0.9h0.9l5.5,10.9v-10.9h0.7h0.7v13.4h-0.8h-0.8l-5.7-10.9
			V242.9z"/>
		<path id="XMLID_37_" class="st10" d="M216,242.9v-13.4h8v0.8v0.8h-6.6v4.1h6.1v0.8v0.8h-6.1v4.5h6.7v0.8v0.8H216z"/>
		<path id="XMLID_35_" class="st10" d="M233.4,233.4c0-0.9-0.3-1.5-0.7-2c-0.5-0.5-1.1-0.7-1.9-0.7c-0.9,0-1.5,0.2-1.9,0.6
			c-0.4,0.4-0.6,1-0.6,1.8c0,0.6,0.2,1,0.6,1.3c0.4,0.3,1.1,0.6,2.2,0.8c1.6,0.4,2.6,0.9,3.2,1.4c0.6,0.6,0.9,1.4,0.9,2.6
			c0,1.3-0.4,2.3-1.2,3c-0.8,0.7-1.9,1.1-3.2,1.1c-1.4,0-2.5-0.4-3.2-1.2c-0.8-0.8-1.1-2-1.2-3.4h1.4c0,1,0.3,1.7,0.8,2.3
			c0.5,0.5,1.2,0.8,2.2,0.8c1,0,1.7-0.2,2.2-0.6c0.5-0.4,0.7-1,0.7-1.7c0-0.7-0.2-1.2-0.6-1.5c-0.4-0.3-1.1-0.6-2.2-0.9
			c-1.6-0.4-2.7-0.8-3.2-1.4c-0.6-0.5-0.9-1.4-0.9-2.4c0-1.2,0.4-2.2,1.1-2.9c0.7-0.7,1.7-1.1,2.9-1.1c1.2,0,2.2,0.4,2.9,1.1
			c0.7,0.7,1.1,1.8,1.1,3.1H233.4z"/>
		<path id="XMLID_33_" class="st10" d="M245.3,231.1h-3.7v-0.8v-0.8h9v0.8v0.8h-3.8v11.8h-0.7h-0.7V231.1z"/>
		<path id="XMLID_31_" class="st10" d="M252.7,242.9v-13.4h8v0.8v0.8h-6.6v4.1h6.1v0.8v0.8h-6.1v4.5h6.7v0.8v0.8H252.7z"/>
		<path id="XMLID_29_" class="st10" d="M272.7,237.9c-0.1,1.7-0.6,3-1.5,3.9c-0.8,0.9-2,1.4-3.4,1.4c-1.5,0-2.7-0.6-3.6-1.9
			c-0.9-1.3-1.3-3-1.3-5.2c0-2.1,0.5-3.8,1.4-5.1c1-1.3,2.2-1.9,3.8-1.9c1.3,0,2.3,0.4,3.1,1.1c0.8,0.8,1.3,1.8,1.4,3.2h-1.5
			c-0.1-0.9-0.4-1.6-1-2c-0.5-0.5-1.2-0.7-2.1-0.7c-1.1,0-2,0.5-2.7,1.5c-0.7,1-1,2.3-1,4c0,1.7,0.3,3.1,0.9,4
			c0.6,0.9,1.5,1.4,2.7,1.4c0.9,0,1.6-0.3,2.2-1c0.5-0.6,0.9-1.6,1-2.7H272.7z"/>
		<path id="XMLID_27_" class="st10" d="M276.6,242.9h-0.7h-0.7v-13.4h0.9h0.9l5.5,10.9v-10.9h0.7h0.7v13.4h-0.8h-0.8l-5.7-10.9
			V242.9z"/>
		<path id="XMLID_24_" class="st10" d="M287.8,241.3c-1-1.3-1.5-3-1.5-5.1c0-2.2,0.5-3.9,1.5-5.2c1-1.3,2.3-1.9,3.9-1.9
			c1.6,0,3,0.6,3.9,1.9c1,1.3,1.5,3,1.5,5.2c0,2.1-0.5,3.8-1.5,5.1c-1,1.3-2.3,1.9-3.9,1.9C290.1,243.3,288.8,242.6,287.8,241.3z
			 M294.5,240.2c0.7-1,1-2.3,1-3.9c0-1.7-0.3-3.1-1-4c-0.7-1-1.6-1.5-2.8-1.5c-1.2,0-2.1,0.5-2.8,1.5c-0.7,1-1,2.3-1,4
			c0,1.6,0.3,2.9,1,3.9c0.7,1,1.6,1.5,2.8,1.5C292.9,241.6,293.8,241.1,294.5,240.2z"/>
		<path id="XMLID_22_" class="st10" d="M299.5,242.9v-13.4h0.7h0.7v11.8h5.6v0.8v0.8H299.5z"/>
		<path id="XMLID_18_" class="st10" d="M309.6,241.3c-1-1.3-1.5-3-1.5-5.1c0-2.2,0.5-3.9,1.5-5.2c1-1.3,2.3-1.9,3.9-1.9
			c1.6,0,3,0.6,3.9,1.9c1,1.3,1.5,3,1.5,5.2c0,2.1-0.5,3.8-1.5,5.1c-1,1.3-2.3,1.9-3.9,1.9C311.9,243.3,310.6,242.6,309.6,241.3z
			 M316.3,240.2c0.7-1,1-2.3,1-3.9c0-1.7-0.3-3.1-1-4c-0.7-1-1.6-1.5-2.8-1.5c-1.2,0-2.1,0.5-2.8,1.5c-0.7,1-1,2.3-1,4
			c0,1.6,0.3,2.9,1,3.9c0.7,1,1.6,1.5,2.8,1.5C314.7,241.6,315.6,241.1,316.3,240.2z M312.3,228.4l1.4-2.6h1.7l-2,2.6H312.3z"/>
		<path id="XMLID_16_" class="st10" d="M326,243.3c-1.5,0-2.8-0.6-3.7-1.9c-0.9-1.3-1.4-3-1.4-5.1c0-2.1,0.5-3.9,1.5-5.2
			c1-1.3,2.3-2,3.9-2c1.2,0,2.2,0.4,3,1.2c0.8,0.8,1.3,1.9,1.5,3.2h-1.5c-0.1-0.8-0.4-1.5-1-2c-0.6-0.5-1.3-0.8-2.2-0.8
			c-1.1,0-2,0.5-2.7,1.5c-0.7,1-1,2.3-1,4.1c0,1.7,0.3,3,1,4c0.7,1,1.6,1.5,2.7,1.5c1.1,0,2-0.4,2.7-1.3c0.2-0.3,0.4-0.7,0.6-1.2
			c0.1-0.5,0.2-1.1,0.2-1.7v-0.3h-3.4v-1.6h4.8v7.2h-1l-0.4-1.5C328.7,242.6,327.5,243.3,326,243.3z"/>
		<path id="XMLID_14_" class="st10" d="M334.1,229.5h0.7h0.7v13.4h-0.7h-0.7V229.5z"/>
		<path id="XMLID_12_" class="st10" d="M348.1,237.9c-0.1,1.7-0.6,3-1.5,3.9c-0.8,0.9-1.9,1.4-3.4,1.4c-1.5,0-2.7-0.6-3.6-1.9
			c-0.9-1.3-1.3-3-1.3-5.2c0-2.1,0.5-3.8,1.4-5.1c0.9-1.3,2.2-1.9,3.7-1.9c1.3,0,2.3,0.4,3.1,1.1c0.8,0.8,1.3,1.8,1.4,3.2h-1.5
			c-0.1-0.9-0.4-1.6-1-2c-0.5-0.5-1.2-0.7-2.1-0.7c-1.1,0-2,0.5-2.7,1.5c-0.7,1-1,2.3-1,4c0,1.7,0.3,3.1,0.9,4
			c0.6,0.9,1.5,1.4,2.7,1.4c0.9,0,1.6-0.3,2.2-1c0.5-0.6,0.9-1.6,1-2.7H348.1z"/>
		<path id="XMLID_9_" class="st10" d="M353.7,229.5h0.8h0.8l4,13.4h-0.8h-0.8l-1.1-3.9h-4.3l-1.1,3.9h-0.9h-0.9L353.7,229.5z
			 M352.8,237.4h3.4l-1.7-6.2h0L352.8,237.4z"/>
		<path id="XMLID_7_" class="st10" d="M368,233.4c0-0.9-0.3-1.5-0.7-2c-0.5-0.5-1.1-0.7-1.9-0.7c-0.9,0-1.5,0.2-1.9,0.6
			c-0.4,0.4-0.6,1-0.6,1.8c0,0.6,0.2,1,0.6,1.3c0.4,0.3,1.1,0.6,2.2,0.8c1.6,0.4,2.6,0.9,3.2,1.4c0.6,0.6,0.9,1.4,0.9,2.6
			c0,1.3-0.4,2.3-1.2,3c-0.8,0.7-1.9,1.1-3.2,1.1c-1.4,0-2.4-0.4-3.2-1.2c-0.8-0.8-1.2-2-1.2-3.4h1.4c0,1,0.3,1.7,0.8,2.3
			c0.5,0.5,1.2,0.8,2.2,0.8c1,0,1.7-0.2,2.2-0.6c0.5-0.4,0.7-1,0.7-1.7c0-0.7-0.2-1.2-0.6-1.5c-0.4-0.3-1.1-0.6-2.2-0.9
			c-1.6-0.4-2.6-0.8-3.2-1.4c-0.6-0.5-0.9-1.4-0.9-2.4c0-1.2,0.4-2.2,1.1-2.9c0.7-0.7,1.7-1.1,2.9-1.1c1.2,0,2.2,0.4,2.9,1.1
			c0.7,0.7,1.1,1.8,1.1,3.1H368z"/>
	</g>
	<g id="XMLID_3_">
		<path id="XMLID_4_" class="st0" d="M140.1,130.1c2.1,1.3,3.9,1.7,5.6,1.3c2.6-0.6,3.9-2.9,5.2-5c2.4-4,4.9-8.2,15.7-5.1
			c12.6,3.6,23.1,0.6,29.4-8.5c8.2-11.7,8-32-0.3-43.5c-0.8-1-2.1-1.4-3.3-0.9c-0.2,0.1-0.5,0.2-0.8,0.4c-0.6,0.3-1.1,0.7-1.4,1.3
			c-5.6,10.9-18.2,16.2-30,12.6c-6.9-2.1-12.6-7.1-15.6-13.8c-0.5-1.1-1.6-1.7-2.8-1.6c-1.2,0.1-2.2,0.9-2.5,2.1l-0.1,0.3
			c0-0.1,0.1-0.2,0.1-0.3c-3,7.1-12.3,19.1-12.4,19.3c-0.3,0.4-0.5,0.8-0.6,1.3C126.2,90.9,122.2,118.8,140.1,130.1z"/>
	</g>
	<linearGradient id="XMLID_134_" gradientUnits="userSpaceOnUse" x1="163.9683" y1="82.5796" x2="163.9683" y2="117.4483">
		<stop  offset="0" style="stop-color:#C5CE31"/>
		<stop  offset="1" style="stop-color:#A1BC35"/>
	</linearGradient>
	<path id="XMLID_2_" class="st11" d="M141.6,127.8c9.3,5.9,3.8-15.5,25.8-9.2c32.9,9.4,37.8-31.6,26-47.7c-0.2,0.1-0.5,0.2-0.8,0.3
		c-6.1,11.9-20.1,18-33.3,14c-8-2.5-14.1-8.2-17.3-15.3c0,0.1,0,0.2-0.1,0.3c-3.2,7.6-12.8,19.9-12.8,19.9S125.1,117.2,141.6,127.8z
		"/>
</g>
<g>
</g>
<g>
</g>
<g>
</g>
<g>
</g>
<g>
</g>
<g>
</g>
</svg>
